<svg xmlns="http://www.w3.org/2000/svg" viewBox="0 0 1000 1000" width="1000" height="1000">
  <!--
    The Seal of the Senate as it hangs behind the President of the Senate's
    chair, drawn for this project from the contractor's photographs of the
    renovated chamber (Figueras gallery images g01 and g10 of the red chamber):
    a white disc with a thin red rim, SEAL OF THE SENATE arched over the top and
    FEDERAL REPUBLIC OF NIGERIA under the bottom, a star at either side between
    them, an inner ring and a ring of small stars inside it, and at the centre a
    gold mace standing upright with the arms at its head.

    Where the House's seal carries the full coat of arms, this one carries the
    mace — the object without which the Senate cannot sit.
  -->
  <defs>
    <path id="top" d="M 134.7 455.2 A 368 368 0 0 1 858.6 417.2" />
    <path id="bottom" d="M 74.5 646.5 A 450 450 0 0 0 925.5 646.5" />
    <polygon id="star" points="0,-1 0.2245,-0.309 0.9511,-0.309 0.3633,0.118 0.5878,0.809 0,0.382 -0.5878,0.809 -0.3633,0.118 -0.9511,-0.309 -0.2245,-0.309" />
    <linearGradient id="gold" x1="0" x2="1">
      <stop offset="0" stop-color="#9c7414" />
      <stop offset="0.45" stop-color="#e3be4a" />
      <stop offset="1" stop-color="#9c7414" />
    </linearGradient>
    <filter id="keyline" x="-10%" y="-10%" width="120%" height="120%">
      <feMorphology in="SourceAlpha" operator="dilate" radius="3" result="grown" />
      <feFlood flood-color="#8e8e88" />
      <feComposite in2="grown" operator="in" result="line" />
      <feMerge><feMergeNode in="line" /><feMergeNode in="SourceGraphic" /></feMerge>
    </filter>
  </defs>

  <circle cx="500" cy="500" r="492" fill="#f6f6f2" stroke="#c42630" stroke-width="10" />
  <circle cx="500" cy="500" r="342" fill="none" stroke="#c42630" stroke-width="6" />

  <g fill="#c42630" font-family="'Helvetica Neue', Arial, sans-serif" font-weight="700">
    <text font-size="88"><textPath href="#top" textLength="1028" lengthAdjust="spacing">SEAL OF THE SENATE</textPath></text>
    <text font-size="66"><textPath href="#bottom" textLength="1115" lengthAdjust="spacing">FEDERAL REPUBLIC OF NIGERIA</textPath></text>
  </g>

  <g fill="#c42630">
    <use href="#star" transform="translate(90.6 521.5) scale(22)" />
    <use href="#star" transform="translate(909.4 521.5) scale(22)" />
  </g>

  <g fill="#c42630">
    <use href="#star" transform="translate(500.0 188.0) scale(10)" />
    <use href="#star" transform="translate(548.8 191.8) scale(10)" />
    <use href="#star" transform="translate(596.4 203.3) scale(10)" />
    <use href="#star" transform="translate(641.6 222.0) scale(10)" />
    <use href="#star" transform="translate(683.4 247.6) scale(10)" />
    <use href="#star" transform="translate(720.6 279.4) scale(10)" />
    <use href="#star" transform="translate(752.4 316.6) scale(10)" />
    <use href="#star" transform="translate(778.0 358.4) scale(10)" />
    <use href="#star" transform="translate(796.7 403.6) scale(10)" />
    <use href="#star" transform="translate(808.2 451.2) scale(10)" />
    <use href="#star" transform="translate(812.0 500.0) scale(10)" />
    <use href="#star" transform="translate(808.2 548.8) scale(10)" />
    <use href="#star" transform="translate(796.7 596.4) scale(10)" />
    <use href="#star" transform="translate(778.0 641.6) scale(10)" />
    <use href="#star" transform="translate(752.4 683.4) scale(10)" />
    <use href="#star" transform="translate(720.6 720.6) scale(10)" />
    <use href="#star" transform="translate(683.4 752.4) scale(10)" />
    <use href="#star" transform="translate(641.6 778.0) scale(10)" />
    <use href="#star" transform="translate(596.4 796.7) scale(10)" />
    <use href="#star" transform="translate(548.8 808.2) scale(10)" />
    <use href="#star" transform="translate(500.0 812.0) scale(10)" />
    <use href="#star" transform="translate(451.2 808.2) scale(10)" />
    <use href="#star" transform="translate(403.6 796.7) scale(10)" />
    <use href="#star" transform="translate(358.4 778.0) scale(10)" />
    <use href="#star" transform="translate(316.6 752.4) scale(10)" />
    <use href="#star" transform="translate(279.4 720.6) scale(10)" />
    <use href="#star" transform="translate(247.6 683.4) scale(10)" />
    <use href="#star" transform="translate(222.0 641.6) scale(10)" />
    <use href="#star" transform="translate(203.3 596.4) scale(10)" />
    <use href="#star" transform="translate(191.8 548.8) scale(10)" />
    <use href="#star" transform="translate(188.0 500.0) scale(10)" />
    <use href="#star" transform="translate(191.8 451.2) scale(10)" />
    <use href="#star" transform="translate(203.3 403.6) scale(10)" />
    <use href="#star" transform="translate(222.0 358.4) scale(10)" />
    <use href="#star" transform="translate(247.6 316.6) scale(10)" />
    <use href="#star" transform="translate(279.4 279.4) scale(10)" />
    <use href="#star" transform="translate(316.6 247.6) scale(10)" />
    <use href="#star" transform="translate(358.4 222.0) scale(10)" />
    <use href="#star" transform="translate(403.6 203.3) scale(10)" />
    <use href="#star" transform="translate(451.2 191.8) scale(10)" />
  </g>

  <!-- the mace, upright: head, collars, a tapering shaft and a pointed foot -->
  <g fill="url(#gold)" stroke="#7d5c10" stroke-width="3">
    <path d="M 489 352 L 511 352 L 507 742 L 493 742 Z" />
    <ellipse cx="500" cy="332" rx="30" ry="24" />
    <rect x="482" y="352" width="36" height="12" rx="4" />
    <rect x="484" y="470" width="32" height="14" rx="5" />
    <rect x="486" y="610" width="28" height="12" rx="5" />
    <path d="M 491 742 L 509 742 L 500 800 Z" />
  </g>

  <g filter="url(#keyline)"><include href="coat-of-arms.svg" x="440" y="222" width="120" height="116" /></g>
</svg>
